<svg width="43" height="44" viewBox="0 0 43 44" fill="none" xmlns="http://www.w3.org/2000/svg">
<circle cx="37.0746" cy="6.4252" r="5.9252" fill="#72CAC3"/>
<path d="M25.5176 3.03937H15.5577C14.1619 3.03937 13.0278 4.16586 13.0184 5.56158L12.9678 13.0447C12.9584 14.4404 11.8243 15.5669 10.4285 15.5669H2.53937C1.13691 15.5669 0 16.7038 0 18.1063V27.3327C0 28.7351 1.13692 29.872 2.53937 29.872H10.4114C11.8139 29.872 12.9508 31.009 12.9508 32.4114V40.876C12.9508 42.2784 14.0877 43.4154 15.4902 43.4154H24.9705C26.3729 43.4154 27.5098 42.2784 27.5098 40.876V32.4114C27.5098 31.009 28.6468 29.872 30.0492 29.872H37.8366C39.2391 29.872 40.376 28.7351 40.376 27.3327V17.503C40.376 16.3891 39.4691 15.4882 38.3553 15.4956C31.3997 15.5413 24.735 18.2931 19.7732 23.1678L17.8602 25.0472L19.9756 22.9319C24.7455 18.162 27.4252 11.6926 27.4252 4.94696C27.4252 3.89342 26.5711 3.03937 25.5176 3.03937Z" fill="#4E677D"/>
</svg>
